<svg id="Layer_1" data-name="Layer 1" xmlns="http://www.w3.org/2000/svg" viewBox="0 0 777.69 164.7"><defs><style>.cls-1,.cls-4{fill:gray;}.cls-1,.cls-3{fill-rule:evenodd;}.cls-2,.cls-3{fill:#3498a1;}</style></defs><title>TalentLyft_logo</title><polygon class="cls-1" points="132.47 70.94 120.99 82.42 82.28 121.13 70.8 109.65 55.05 93.9 43.57 105.38 82.28 144.09 143.95 82.42 132.47 70.94"/><rect class="cls-2" x="71.14" y="71.28" width="22.28" height="22.28" transform="translate(-34.18 82.32) rotate(-45)"/><polygon class="cls-3" points="82.28 43.71 109.51 70.94 120.99 59.47 82.28 20.75 20.61 82.42 32.09 93.9 43.57 82.42 62.25 63.74 82.28 43.71"/><path class="cls-2" d="M164.73,53.41h55.44v8.32H196.6v47.12h-8.32V61.72H164.73Z"/><path class="cls-2" d="M243.42,64.19h27.72a10,10,0,0,1,10,10v34.65h-8.32V97.14H241.72v11.7h-8.32V74.2a10,10,0,0,1,10-10Zm-1.69,24.64h31.11V74.2a1.71,1.71,0,0,0-1.69-1.69H243.42a1.71,1.71,0,0,0-1.69,1.69Z"/><path class="cls-2" d="M297,108.85V64.19h8.32v36.34h37.88v8.32Z"/><path class="cls-2" d="M396.26,64.11v8.32H363.77v9.93h24.18v8.32H363.77v9.86h32.49v8.32H355.45V64.11Z"/><path class="cls-2" d="M450.16,97.76V64.19h8.32v44.66h-9.86l-28-33.65v33.65h-8.32V64.19h9.86Z"/><path class="cls-2" d="M472,64.19h46.2V72.5H499.29v36.34H491V72.5H472Z"/><path class="cls-4" d="M532,108.85V53.33h8.32v47.2h47.12v8.32Z"/><path class="cls-4" d="M637,64.19h9.86L626,93.45v15.4h-8.32V93.45L596.69,64.19h9.78l15.32,19.87Z"/><path class="cls-4" d="M660.14,64.11h40.81v8.32H668.45v9.93h24.18v8.32H668.45v18.17h-8.32Z"/><path class="cls-4" d="M710.88,64.19h46.2V72.5H738.14v36.34h-8.32V72.5H710.88Z"/></svg>